<?xml version="1.0" encoding="UTF-8"?>
<svg id="Layer_1" data-name="Layer 1" xmlns="http://www.w3.org/2000/svg" viewBox="0 0 257.63 254.48">
  <path d="m0,216.95V40.8C0,18.26,18.12,0,40.68,0h176.27c22.47,0,40.68,18.13,40.68,40.8v135.34c0,22.54-18.2,40.8-40.66,40.8H81.36l-47.57,31.7c-18.67,12.45-33.79,4.33-33.79-18.02v-13.68h0Zm66.32-22.56l6.83-4.56h143.82c7.46,0,13.55-6.1,13.55-13.68V40.81c0-7.66-6.02-13.68-13.56-13.68H40.69c-7.53,0-13.56,6.06-13.56,13.68v176.15l39.2-22.56h-.01Zm15.04-113.03c0-7.48,5.94-13.56,13.6-13.56h67.72c7.51,0,13.6,6.02,13.6,13.56s-5.94,13.56-13.6,13.56h-67.72c-7.51,0-13.6-6.02-13.6-13.56h0Zm0,54.24c0-7.48,5.94-13.56,13.6-13.56h67.72c7.51,0,13.6,6.02,13.6,13.56s-5.94,13.56-13.6,13.56h-67.72c-7.51,0-13.6-6.02-13.6-13.56h0Z" fill-rule="evenodd"/>
</svg>