<svg width="254" height="166" viewBox="0 0 254 166" fill="none" xmlns="http://www.w3.org/2000/svg">
<path d="M226.959 139.368L229.329 141.339L226.952 143.324L226.478 142.775L228.237 141.353L226.465 139.931L226.959 139.368ZM232.744 138.928V143.736H231.803V139.883L230.862 140.268V139.45L232.146 138.928H232.744ZM236.492 143.805C236.176 143.805 235.887 143.745 235.626 143.626C235.365 143.507 235.143 143.34 234.96 143.125C234.777 142.91 234.632 142.649 234.527 142.342C234.426 142.035 234.376 141.696 234.376 141.326C234.376 140.959 234.426 140.623 234.527 140.316C234.632 140.009 234.777 139.748 234.96 139.533C235.148 139.318 235.372 139.151 235.633 139.032C235.894 138.912 236.18 138.853 236.492 138.853C236.807 138.853 237.096 138.912 237.357 139.032C237.618 139.151 237.84 139.318 238.023 139.533C238.206 139.748 238.348 140.009 238.449 140.316C238.554 140.623 238.607 140.959 238.607 141.326C238.607 141.696 238.557 142.035 238.456 142.342C238.355 142.649 238.211 142.91 238.023 143.125C237.84 143.34 237.618 143.507 237.357 143.626C237.096 143.745 236.807 143.805 236.492 143.805ZM236.492 142.988C236.862 142.988 237.155 142.839 237.371 142.541C237.586 142.244 237.693 141.838 237.693 141.326C237.693 140.822 237.584 140.421 237.364 140.124C237.149 139.821 236.858 139.67 236.492 139.67C236.125 139.67 235.834 139.821 235.619 140.124C235.404 140.421 235.296 140.822 235.296 141.326C235.296 141.838 235.404 142.244 235.619 142.541C235.834 142.839 236.125 142.988 236.492 142.988ZM242.224 143.805C241.908 143.805 241.619 143.745 241.358 143.626C241.097 143.507 240.875 143.34 240.692 143.125C240.509 142.91 240.365 142.649 240.259 142.342C240.159 142.035 240.108 141.696 240.108 141.326C240.108 140.959 240.159 140.623 240.259 140.316C240.365 140.009 240.509 139.748 240.692 139.533C240.88 139.318 241.104 139.151 241.365 139.032C241.626 138.912 241.912 138.853 242.224 138.853C242.54 138.853 242.828 138.912 243.089 139.032C243.35 139.151 243.572 139.318 243.755 139.533C243.938 139.748 244.08 140.009 244.181 140.316C244.286 140.623 244.339 140.959 244.339 141.326C244.339 141.696 244.289 142.035 244.188 142.342C244.087 142.649 243.943 142.91 243.755 143.125C243.572 143.34 243.35 143.507 243.089 143.626C242.828 143.745 242.54 143.805 242.224 143.805ZM242.224 142.988C242.595 142.988 242.888 142.839 243.103 142.541C243.318 142.244 243.426 141.838 243.426 141.326C243.426 140.822 243.316 140.421 243.096 140.124C242.881 139.821 242.59 139.67 242.224 139.67C241.857 139.67 241.567 139.821 241.351 140.124C241.136 140.421 241.029 140.822 241.029 141.326C241.029 141.838 241.136 142.244 241.351 142.541C241.567 142.839 241.857 142.988 242.224 142.988Z" fill="#B1ACBB"/>
<rect x="220" y="57" width="33" height="74" rx="6.86833" fill="#F1F1F1"/>
<path d="M169.474 143.633L171.699 139.642H168.911V138.825H172.771V139.519L170.594 143.633H169.474ZM174.362 141.346L174.478 138.825H177.576V139.615H175.241L175.193 140.734C175.335 140.684 175.479 140.647 175.625 140.624C175.776 140.602 175.932 140.59 176.092 140.59C176.614 140.59 177.038 140.728 177.363 141.002C177.688 141.272 177.851 141.627 177.851 142.067C177.851 142.31 177.803 142.532 177.706 142.733C177.615 142.935 177.482 143.109 177.308 143.255C177.139 143.397 176.933 143.509 176.69 143.592C176.447 143.669 176.182 143.708 175.893 143.708C175.55 143.708 175.225 143.653 174.918 143.544C174.611 143.434 174.339 143.273 174.101 143.063L174.671 142.424C174.881 142.598 175.083 142.724 175.275 142.802C175.472 142.875 175.687 142.912 175.921 142.912C176.209 142.912 176.443 142.838 176.621 142.692C176.8 142.545 176.889 142.353 176.889 142.115C176.889 141.886 176.793 141.701 176.601 141.559C176.408 141.412 176.161 141.339 175.859 141.339C175.717 141.339 175.568 141.357 175.412 141.394C175.261 141.426 175.115 141.472 174.973 141.531L174.362 141.346ZM179.379 141.277H181.962V142.074H179.379V141.277ZM185.099 138.825V143.633H184.158V139.78L183.217 140.164V139.347L184.501 138.825H185.099ZM188.846 143.701C188.53 143.701 188.242 143.642 187.981 143.523C187.72 143.404 187.498 143.237 187.314 143.022C187.131 142.806 186.987 142.545 186.882 142.239C186.781 141.932 186.731 141.593 186.731 141.222C186.731 140.856 186.781 140.519 186.882 140.212C186.987 139.906 187.131 139.645 187.314 139.429C187.502 139.214 187.727 139.047 187.988 138.928C188.249 138.809 188.535 138.749 188.846 138.749C189.162 138.749 189.451 138.809 189.712 138.928C189.973 139.047 190.195 139.214 190.378 139.429C190.561 139.645 190.703 139.906 190.804 140.212C190.909 140.519 190.962 140.856 190.962 141.222C190.962 141.593 190.911 141.932 190.81 142.239C190.71 142.545 190.565 142.806 190.378 143.022C190.195 143.237 189.973 143.404 189.712 143.523C189.451 143.642 189.162 143.701 188.846 143.701ZM188.846 142.884C189.217 142.884 189.51 142.735 189.725 142.438C189.94 142.14 190.048 141.735 190.048 141.222C190.048 140.718 189.938 140.318 189.718 140.02C189.503 139.718 189.212 139.567 188.846 139.567C188.48 139.567 188.189 139.718 187.974 140.02C187.759 140.318 187.651 140.718 187.651 141.222C187.651 141.735 187.759 142.14 187.974 142.438C188.189 142.735 188.48 142.884 188.846 142.884ZM194.578 143.701C194.262 143.701 193.974 143.642 193.713 143.523C193.452 143.404 193.23 143.237 193.047 143.022C192.863 142.806 192.719 142.545 192.614 142.239C192.513 141.932 192.463 141.593 192.463 141.222C192.463 140.856 192.513 140.519 192.614 140.212C192.719 139.906 192.863 139.645 193.047 139.429C193.234 139.214 193.459 139.047 193.72 138.928C193.981 138.809 194.267 138.749 194.578 138.749C194.894 138.749 195.183 138.809 195.444 138.928C195.705 139.047 195.927 139.214 196.11 139.429C196.293 139.645 196.435 139.906 196.536 140.212C196.641 140.519 196.694 140.856 196.694 141.222C196.694 141.593 196.643 141.932 196.543 142.239C196.442 142.545 196.298 142.806 196.11 143.022C195.927 143.237 195.705 143.404 195.444 143.523C195.183 143.642 194.894 143.701 194.578 143.701ZM194.578 142.884C194.949 142.884 195.242 142.735 195.457 142.438C195.673 142.14 195.78 141.735 195.78 141.222C195.78 140.718 195.67 140.318 195.45 140.02C195.235 139.718 194.945 139.567 194.578 139.567C194.212 139.567 193.921 139.718 193.706 140.02C193.491 140.318 193.383 140.718 193.383 141.222C193.383 141.735 193.491 142.14 193.706 142.438C193.921 142.735 194.212 142.884 194.578 142.884Z" fill="#B1ACBB"/>
<rect x="165" y="37" width="33" height="94" rx="6.86833" fill="#F1F1F1"/>
<path d="M115.822 142.072L115.939 139.552H119.037V140.341H116.701L116.653 141.461C116.795 141.411 116.94 141.374 117.086 141.351C117.237 141.328 117.393 141.317 117.553 141.317C118.075 141.317 118.499 141.454 118.824 141.729C119.149 141.999 119.311 142.354 119.311 142.793C119.311 143.036 119.263 143.258 119.167 143.46C119.076 143.661 118.943 143.835 118.769 143.982C118.599 144.124 118.393 144.236 118.151 144.318C117.908 144.396 117.642 144.435 117.354 144.435C117.011 144.435 116.685 144.38 116.379 144.27C116.072 144.16 115.799 144 115.561 143.789L116.131 143.151C116.342 143.325 116.543 143.45 116.736 143.528C116.933 143.602 117.148 143.638 117.381 143.638C117.67 143.638 117.903 143.565 118.082 143.418C118.261 143.272 118.35 143.08 118.35 142.841C118.35 142.613 118.254 142.427 118.061 142.285C117.869 142.139 117.622 142.065 117.32 142.065C117.178 142.065 117.029 142.084 116.873 142.12C116.722 142.152 116.576 142.198 116.434 142.258L115.822 142.072ZM122.907 144.428C122.591 144.428 122.303 144.369 122.042 144.249C121.781 144.13 121.559 143.963 121.376 143.748C121.192 143.533 121.048 143.272 120.943 142.965C120.842 142.658 120.792 142.319 120.792 141.949C120.792 141.582 120.842 141.246 120.943 140.939C121.048 140.632 121.192 140.371 121.376 140.156C121.563 139.941 121.788 139.774 122.049 139.655C122.31 139.536 122.596 139.476 122.907 139.476C123.223 139.476 123.512 139.536 123.773 139.655C124.034 139.774 124.256 139.941 124.439 140.156C124.622 140.371 124.764 140.632 124.865 140.939C124.97 141.246 125.023 141.582 125.023 141.949C125.023 142.319 124.972 142.658 124.872 142.965C124.771 143.272 124.627 143.533 124.439 143.748C124.256 143.963 124.034 144.13 123.773 144.249C123.512 144.369 123.223 144.428 122.907 144.428ZM122.907 143.611C123.278 143.611 123.571 143.462 123.786 143.164C124.002 142.867 124.109 142.461 124.109 141.949C124.109 141.445 123.999 141.044 123.78 140.747C123.564 140.444 123.274 140.293 122.907 140.293C122.541 140.293 122.25 140.444 122.035 140.747C121.82 141.044 121.712 141.445 121.712 141.949C121.712 142.461 121.82 142.867 122.035 143.164C122.25 143.462 122.541 143.611 122.907 143.611ZM126.572 142.004H129.154V142.8H126.572V142.004ZM130.825 144.359L133.05 140.369H130.262V139.552H134.122V140.245L131.944 144.359H130.825ZM135.712 142.072L135.829 139.552H138.927V140.341H136.591L136.543 141.461C136.685 141.411 136.83 141.374 136.976 141.351C137.127 141.328 137.283 141.317 137.443 141.317C137.965 141.317 138.389 141.454 138.714 141.729C139.039 141.999 139.201 142.354 139.201 142.793C139.201 143.036 139.153 143.258 139.057 143.46C138.966 143.661 138.833 143.835 138.659 143.982C138.489 144.124 138.283 144.236 138.041 144.318C137.798 144.396 137.532 144.435 137.244 144.435C136.901 144.435 136.575 144.38 136.269 144.27C135.962 144.16 135.689 144 135.451 143.789L136.021 143.151C136.232 143.325 136.433 143.45 136.626 143.528C136.823 143.602 137.038 143.638 137.271 143.638C137.56 143.638 137.793 143.565 137.972 143.418C138.151 143.272 138.24 143.08 138.24 142.841C138.24 142.613 138.144 142.427 137.951 142.285C137.759 142.139 137.512 142.065 137.21 142.065C137.068 142.065 136.919 142.084 136.763 142.12C136.612 142.152 136.466 142.198 136.324 142.258L135.712 142.072Z" fill="#B1ACBB"/>
<rect x="110" y="57" width="33" height="74" rx="6.86833" fill="#F1F1F1"/>
<path d="M59.1987 144.012V143.352L61.0944 141.656C61.3096 141.459 61.463 141.287 61.5545 141.141C61.6461 140.99 61.6919 140.834 61.6919 140.674C61.6919 140.463 61.6095 140.289 61.4446 140.152C61.2798 140.014 61.0737 139.946 60.8265 139.946C60.5975 139.946 60.3823 139.991 60.1809 140.083C59.984 140.175 59.7688 140.326 59.5352 140.536L59.0064 139.904C59.2857 139.653 59.581 139.463 59.8924 139.334C60.2038 139.206 60.5243 139.142 60.854 139.142C61.1104 139.142 61.3462 139.179 61.5614 139.252C61.7812 139.321 61.9666 139.419 62.1177 139.547C62.2734 139.676 62.3925 139.831 62.4749 140.014C62.5619 140.198 62.6054 140.397 62.6054 140.612C62.6054 140.887 62.5367 141.141 62.3993 141.374C62.262 141.608 62.0239 141.876 61.685 142.178L60.5105 143.222H62.6672V144.012H59.1987ZM64.3379 141.725L64.4546 139.204H67.5522V139.994H65.217L65.1689 141.113C65.3109 141.063 65.4551 141.026 65.6016 141.003C65.7527 140.98 65.9084 140.969 66.0687 140.969C66.5907 140.969 67.0142 141.106 67.3393 141.381C67.6644 141.651 67.827 142.006 67.827 142.446C67.827 142.688 67.7789 142.91 67.6827 143.112C67.5912 143.313 67.4584 143.487 67.2844 143.634C67.115 143.776 66.9089 143.888 66.6662 143.971C66.4235 144.048 66.158 144.087 65.8695 144.087C65.5261 144.087 65.201 144.032 64.8942 143.922C64.5874 143.813 64.315 143.652 64.0769 143.442L64.6469 142.803C64.8576 142.977 65.059 143.103 65.2514 143.181C65.4482 143.254 65.6635 143.291 65.897 143.291C66.1854 143.291 66.419 143.217 66.5975 143.071C66.7761 142.924 66.8654 142.732 66.8654 142.494C66.8654 142.265 66.7693 142.079 66.5769 141.937C66.3846 141.791 66.1374 141.718 65.8352 141.718C65.6932 141.718 65.5444 141.736 65.3887 141.773C65.2376 141.805 65.0911 141.85 64.9491 141.91L64.3379 141.725ZM69.3554 141.656H71.9379V142.453H69.3554V141.656ZM73.5283 141.725L73.645 139.204H76.7427V139.994H74.4074L74.3593 141.113C74.5013 141.063 74.6455 141.026 74.7921 141.003C74.9432 140.98 75.0988 140.969 75.2591 140.969C75.7811 140.969 76.2046 141.106 76.5297 141.381C76.8548 141.651 77.0174 142.006 77.0174 142.446C77.0174 142.688 76.9693 142.91 76.8732 143.112C76.7816 143.313 76.6488 143.487 76.4748 143.634C76.3054 143.776 76.0993 143.888 75.8566 143.971C75.614 144.048 75.3484 144.087 75.0599 144.087C74.7165 144.087 74.3914 144.032 74.0846 143.922C73.7778 143.813 73.5054 143.652 73.2673 143.442L73.8374 142.803C74.048 142.977 74.2495 143.103 74.4418 143.181C74.6387 143.254 74.8539 143.291 75.0874 143.291C75.3759 143.291 75.6094 143.217 75.788 143.071C75.9665 142.924 76.0558 142.732 76.0558 142.494C76.0558 142.265 75.9597 142.079 75.7674 141.937C75.575 141.791 75.3278 141.718 75.0256 141.718C74.8836 141.718 74.7348 141.736 74.5791 141.773C74.428 141.805 74.2815 141.85 74.1396 141.91L73.5283 141.725ZM80.6132 144.08C80.2973 144.08 80.0088 144.021 79.7478 143.902C79.4868 143.783 79.2647 143.616 79.0816 143.4C78.8984 143.185 78.7542 142.924 78.6489 142.617C78.5482 142.311 78.4978 141.972 78.4978 141.601C78.4978 141.235 78.5482 140.898 78.6489 140.591C78.7542 140.285 78.8984 140.024 79.0816 139.808C79.2693 139.593 79.4937 139.426 79.7547 139.307C80.0157 139.188 80.3019 139.128 80.6132 139.128C80.9292 139.128 81.2176 139.188 81.4786 139.307C81.7396 139.426 81.9617 139.593 82.1449 139.808C82.328 140.024 82.47 140.285 82.5707 140.591C82.676 140.898 82.7287 141.235 82.7287 141.601C82.7287 141.972 82.6783 142.311 82.5776 142.617C82.4768 142.924 82.3326 143.185 82.1449 143.4C81.9617 143.616 81.7396 143.783 81.4786 143.902C81.2176 144.021 80.9292 144.08 80.6132 144.08ZM80.6132 143.263C80.9841 143.263 81.2772 143.114 81.4924 142.817C81.7076 142.519 81.8152 142.114 81.8152 141.601C81.8152 141.097 81.7053 140.697 81.4855 140.399C81.2703 140.097 80.9795 139.946 80.6132 139.946C80.2469 139.946 79.9562 140.097 79.7409 140.399C79.5257 140.697 79.4181 141.097 79.4181 141.601C79.4181 142.114 79.5257 142.519 79.7409 142.817C79.9562 143.114 80.2469 143.263 80.6132 143.263Z" fill="#B1ACBB"/>
<path d="M110.276 162H109.253V156.709H110.276V162ZM109.231 155.235C109.091 155.088 109.022 154.912 109.022 154.707C109.022 154.502 109.091 154.326 109.231 154.179C109.377 154.032 109.553 153.959 109.759 153.959C109.964 153.959 110.14 154.032 110.287 154.179C110.433 154.318 110.507 154.494 110.507 154.707C110.507 154.912 110.433 155.088 110.287 155.235C110.14 155.374 109.964 155.444 109.759 155.444C109.553 155.444 109.377 155.374 109.231 155.235ZM114.099 158.942V162H113.065V156.709H114.077V157.468C114.429 156.859 114.972 156.555 115.705 156.555C116.314 156.555 116.779 156.749 117.102 157.138C117.432 157.527 117.597 158.029 117.597 158.645V162H116.563V158.821C116.563 157.934 116.152 157.49 115.331 157.49C114.942 157.49 114.638 157.629 114.418 157.908C114.205 158.179 114.099 158.524 114.099 158.942ZM125.075 162H124.052V156.709H125.042V157.413C125.204 157.134 125.431 156.922 125.724 156.775C126.018 156.628 126.326 156.555 126.648 156.555C126.993 156.555 127.308 156.639 127.594 156.808C127.88 156.977 128.093 157.226 128.232 157.556C128.599 156.889 129.189 156.555 130.003 156.555C130.509 156.555 130.938 156.727 131.29 157.072C131.65 157.417 131.829 157.915 131.829 158.568V162H130.806V158.678C130.806 158.311 130.711 158.018 130.52 157.798C130.337 157.578 130.058 157.468 129.684 157.468C129.325 157.468 129.032 157.596 128.804 157.853C128.577 158.102 128.463 158.418 128.463 158.799V162H127.429V158.678C127.429 158.311 127.334 158.018 127.143 157.798C126.96 157.578 126.681 157.468 126.307 157.468C125.941 157.468 125.644 157.593 125.416 157.842C125.189 158.091 125.075 158.414 125.075 158.81V162ZM135.537 162H134.514V156.709H135.537V162ZM134.492 155.235C134.353 155.088 134.283 154.912 134.283 154.707C134.283 154.502 134.353 154.326 134.492 154.179C134.639 154.032 134.815 153.959 135.02 153.959C135.226 153.959 135.402 154.032 135.548 154.179C135.695 154.318 135.768 154.494 135.768 154.707C135.768 154.912 135.695 155.088 135.548 155.235C135.402 155.374 135.226 155.444 135.02 155.444C134.815 155.444 134.639 155.374 134.492 155.235ZM139.361 158.942V162H138.327V156.709H139.339V157.468C139.691 156.859 140.233 156.555 140.967 156.555C141.575 156.555 142.041 156.749 142.364 157.138C142.694 157.527 142.859 158.029 142.859 158.645V162H141.825V158.821C141.825 157.934 141.414 157.49 140.593 157.49C140.204 157.49 139.9 157.629 139.68 157.908C139.467 158.179 139.361 158.524 139.361 158.942ZM145.039 160.625L145.974 160.295C146.01 160.581 146.135 160.819 146.348 161.01C146.56 161.193 146.846 161.285 147.206 161.285C147.484 161.285 147.704 161.219 147.866 161.087C148.027 160.948 148.108 160.779 148.108 160.581C148.108 160.229 147.88 160.002 147.426 159.899L146.524 159.701C146.113 159.613 145.79 159.437 145.556 159.173C145.321 158.909 145.204 158.59 145.204 158.216C145.204 157.761 145.387 157.369 145.754 157.039C146.128 156.709 146.571 156.544 147.085 156.544C147.422 156.544 147.723 156.595 147.987 156.698C148.251 156.793 148.456 156.922 148.603 157.083C148.749 157.244 148.859 157.395 148.933 157.534C149.006 157.673 149.061 157.816 149.098 157.963L148.185 158.304C148.17 158.216 148.144 158.132 148.108 158.051C148.071 157.963 148.012 157.868 147.932 157.765C147.858 157.662 147.748 157.582 147.602 157.523C147.455 157.457 147.283 157.424 147.085 157.424C146.828 157.424 146.615 157.494 146.447 157.633C146.285 157.772 146.205 157.937 146.205 158.128C146.205 158.465 146.406 158.678 146.81 158.766L147.668 158.953C148.137 159.056 148.496 159.246 148.746 159.525C149.002 159.796 149.131 160.13 149.131 160.526C149.131 160.944 148.958 161.322 148.614 161.659C148.276 161.996 147.803 162.165 147.195 162.165C146.542 162.165 146.032 162.004 145.666 161.681C145.299 161.351 145.09 160.999 145.039 160.625Z" fill="#65626B"/>
<rect x="55" y="37" width="33" height="94" rx="6.86833" fill="#F1F1F1"/>
<path d="M12.3343 143.506L9.96468 141.535L12.3411 139.55L12.815 140.099L11.0567 141.521L12.8288 142.943L12.3343 143.506ZM14.5476 143.918V143.259L16.4432 141.562C16.6584 141.365 16.8118 141.194 16.9034 141.047C16.995 140.896 17.0408 140.74 17.0408 140.58C17.0408 140.369 16.9584 140.195 16.7935 140.058C16.6287 139.921 16.4226 139.852 16.1754 139.852C15.9464 139.852 15.7312 139.898 15.5297 139.989C15.3328 140.081 15.1176 140.232 14.8841 140.443L14.3553 139.811C14.6346 139.559 14.9299 139.369 15.2413 139.241C15.5526 139.112 15.8732 139.048 16.2028 139.048C16.4593 139.048 16.6951 139.085 16.9103 139.158C17.1301 139.227 17.3155 139.325 17.4666 139.454C17.6223 139.582 17.7413 139.737 17.8238 139.921C17.9108 140.104 17.9543 140.303 17.9543 140.518C17.9543 140.793 17.8856 141.047 17.7482 141.281C17.6108 141.514 17.3727 141.782 17.0339 142.084L15.8594 143.128H18.0161V143.918H14.5476ZM19.6867 141.631L19.8035 139.11H22.9011V139.9H20.5659L20.5178 141.02C20.6598 140.969 20.804 140.933 20.9505 140.91C21.1016 140.887 21.2573 140.875 21.4176 140.875C21.9396 140.875 22.3631 141.013 22.6882 141.287C23.0133 141.558 23.1759 141.912 23.1759 142.352C23.1759 142.595 23.1278 142.817 23.0316 143.018C22.94 143.22 22.8073 143.394 22.6333 143.54C22.4638 143.682 22.2578 143.794 22.0151 143.877C21.7724 143.955 21.5069 143.994 21.2184 143.994C20.875 143.994 20.5499 143.939 20.2431 143.829C19.9363 143.719 19.6638 143.559 19.4257 143.348L19.9958 142.709C20.2064 142.883 20.4079 143.009 20.6002 143.087C20.7971 143.16 21.0123 143.197 21.2459 143.197C21.5343 143.197 21.7678 143.124 21.9464 142.977C22.125 142.83 22.2143 142.638 22.2143 142.4C22.2143 142.171 22.1181 141.986 21.9258 141.844C21.7335 141.697 21.4862 141.624 21.184 141.624C21.0421 141.624 20.8933 141.642 20.7376 141.679C20.5865 141.711 20.44 141.757 20.298 141.816L19.6867 141.631Z" fill="#B1ACBB"/>
<rect y="57" width="33" height="74" rx="6.86833" fill="#F1F1F1"/>
<line x1="161.5" y1="159.371" x2="253.18" y2="159.371" stroke="#ECF0F4" stroke-linecap="round"/>
<line x1="4.17651" y1="159.398" x2="94.4965" y2="159.398" stroke="#ECF0F4" stroke-linecap="round"/>
<path d="M86.6807 7.25977H88.9219L88.1699 10.7314C87.4668 10.9756 86.7848 11.0977 86.124 11.0977C85.2646 11.0977 84.5957 10.8633 84.1172 10.3945C83.6419 9.92253 83.4043 9.26497 83.4043 8.42188C83.4043 7.54622 83.5687 6.75033 83.8975 6.03418C84.2295 5.31478 84.6885 4.75651 85.2744 4.35938C85.8604 3.95898 86.5098 3.75879 87.2227 3.75879C87.6035 3.75879 87.96 3.79134 88.292 3.85645C88.6273 3.92155 88.9642 4.02572 89.3027 4.16895L88.9805 4.91113C88.7298 4.80046 88.4596 4.70443 88.1699 4.62305C87.8835 4.54167 87.5677 4.50098 87.2227 4.50098C86.6725 4.50098 86.1712 4.66699 85.7188 4.99902C85.2695 5.3278 84.9196 5.78841 84.6689 6.38086C84.4183 6.97331 84.293 7.63574 84.293 8.36816C84.293 8.98665 84.459 9.47331 84.791 9.82812C85.1263 10.1829 85.5934 10.3604 86.1924 10.3604C86.6937 10.3604 87.1169 10.2969 87.4619 10.1699L87.9307 8.00195H86.5195L86.6807 7.25977ZM93.1113 5.55078C93.3359 5.55078 93.5312 5.57357 93.6973 5.61914L93.5215 6.35156C93.349 6.30924 93.1781 6.28809 93.0088 6.28809C92.7126 6.28809 92.4342 6.38574 92.1738 6.58105C91.9167 6.77637 91.6904 7.04818 91.4951 7.39648C91.3031 7.74154 91.1615 8.12565 91.0703 8.54883L90.5479 11H89.7275L90.8701 5.64844H91.5488L91.4414 6.63965H91.4902C91.7246 6.3304 91.9183 6.10905 92.0713 5.97559C92.2243 5.83887 92.3838 5.7347 92.5498 5.66309C92.7191 5.58822 92.9062 5.55078 93.1113 5.55078ZM96.5244 5.55078C96.8239 5.55078 97.0908 5.63216 97.3252 5.79492C97.5596 5.95443 97.7419 6.18555 97.8721 6.48828H97.9258L98.2529 5.64844H98.873L97.7354 11H97.0859L97.2129 9.97949H97.1738C96.5911 10.7249 95.9775 11.0977 95.333 11.0977C94.8805 11.0977 94.5257 10.9365 94.2686 10.6143C94.0114 10.292 93.8828 9.85091 93.8828 9.29102C93.8828 8.61393 93.9984 7.98568 94.2295 7.40625C94.4606 6.82682 94.7796 6.37272 95.1865 6.04395C95.5934 5.71517 96.0394 5.55078 96.5244 5.55078ZM95.5967 10.4189C95.9124 10.4189 96.2266 10.2692 96.5391 9.96973C96.8516 9.66699 97.1055 9.27474 97.3008 8.79297C97.4961 8.30794 97.5938 7.82292 97.5938 7.33789C97.5938 7.0026 97.5026 6.73568 97.3203 6.53711C97.138 6.33854 96.8988 6.23926 96.6025 6.23926C96.264 6.23926 95.9482 6.37923 95.6553 6.65918C95.3656 6.93913 95.1377 7.31836 94.9717 7.79688C94.8057 8.27539 94.7227 8.77995 94.7227 9.31055C94.7227 9.68164 94.7992 9.95996 94.9521 10.1455C95.1051 10.3278 95.32 10.4189 95.5967 10.4189ZM101.72 11.0977C101.404 11.0977 101.127 11.0163 100.89 10.8535C100.652 10.6908 100.468 10.4629 100.338 10.1699H100.289L100.27 10.3555C100.26 10.4368 100.242 10.5508 100.216 10.6973C100.193 10.8438 100.007 11.7454 99.6592 13.4023H98.8486L100.489 5.64844H101.168L101.041 6.66895H101.08C101.663 5.93001 102.268 5.56055 102.896 5.56055C103.342 5.56055 103.694 5.72005 103.951 6.03906C104.208 6.35482 104.337 6.79915 104.337 7.37207C104.337 8.06217 104.225 8.69531 104 9.27148C103.775 9.84766 103.465 10.2969 103.067 10.6191C102.67 10.9382 102.221 11.0977 101.72 11.0977ZM102.628 6.23926C102.315 6.23926 101.996 6.39388 101.671 6.70312C101.349 7.01237 101.091 7.40137 100.899 7.87012C100.711 8.33887 100.616 8.81901 100.616 9.31055C100.616 9.66862 100.706 9.94368 100.885 10.1357C101.067 10.3245 101.329 10.4189 101.671 10.4189C101.993 10.4189 102.293 10.2871 102.569 10.0234C102.849 9.75977 103.074 9.38542 103.243 8.90039C103.412 8.41211 103.497 7.89453 103.497 7.34766C103.497 6.60872 103.207 6.23926 102.628 6.23926ZM108.39 11L109.112 7.62109C109.171 7.3151 109.2 7.09538 109.2 6.96191C109.2 6.48014 108.961 6.23926 108.482 6.23926C108.193 6.23926 107.91 6.33529 107.633 6.52734C107.359 6.7194 107.117 6.99935 106.905 7.36719C106.697 7.73177 106.539 8.17285 106.432 8.69043L105.938 11H105.118L106.729 3.40234H107.55C107.491 3.66927 107.434 3.92806 107.379 4.17871C107.327 4.42936 107.271 4.6849 107.213 4.94531C107.158 5.20247 107.096 5.47266 107.027 5.75586C106.962 6.03906 106.886 6.34668 106.798 6.67871H106.852C107.158 6.27832 107.459 5.99186 107.755 5.81934C108.054 5.64681 108.367 5.56055 108.692 5.56055C109.119 5.56055 109.448 5.67773 109.679 5.91211C109.913 6.14648 110.03 6.47852 110.03 6.9082C110.03 7.11003 109.993 7.38021 109.918 7.71875C109.791 8.34701 109.555 9.44076 109.21 11H108.39ZM116.759 11L117.481 7.62109C117.547 7.28255 117.579 7.04818 117.579 6.91797C117.579 6.71289 117.521 6.5485 117.403 6.4248C117.289 6.30111 117.105 6.23926 116.852 6.23926C116.562 6.23926 116.279 6.33691 116.002 6.53223C115.729 6.72754 115.486 7.00586 115.274 7.36719C115.066 7.72852 114.908 8.16634 114.801 8.68066L114.308 11H113.487L114.63 5.64844H115.309L115.201 6.63965H115.25C115.562 6.24251 115.864 5.96257 116.153 5.7998C116.446 5.63379 116.749 5.55078 117.062 5.55078C117.475 5.55078 117.8 5.66471 118.038 5.89258C118.279 6.11719 118.399 6.43294 118.399 6.83984C118.399 7.09701 118.362 7.38997 118.287 7.71875L117.589 11H116.759ZM122.11 5.58008C122.729 5.58008 123.217 5.764 123.575 6.13184C123.933 6.49642 124.112 6.99935 124.112 7.64062C124.112 8.2526 123.995 8.8304 123.761 9.37402C123.526 9.91764 123.209 10.3376 122.809 10.6338C122.408 10.93 121.956 11.0781 121.451 11.0781C120.826 11.0781 120.336 10.8942 119.981 10.5264C119.627 10.1585 119.449 9.6556 119.449 9.01758C119.449 8.39909 119.568 7.81803 119.806 7.27441C120.043 6.72754 120.364 6.30924 120.768 6.01953C121.171 5.72656 121.619 5.58008 122.11 5.58008ZM123.263 7.52832C123.263 7.15397 123.16 6.85124 122.955 6.62012C122.753 6.38574 122.478 6.26855 122.13 6.26855C121.775 6.26855 121.456 6.389 121.173 6.62988C120.893 6.87077 120.675 7.20605 120.519 7.63574C120.366 8.06217 120.289 8.53743 120.289 9.06152C120.289 9.48796 120.392 9.81836 120.597 10.0527C120.805 10.2839 121.103 10.3994 121.49 10.3994C121.829 10.3994 122.133 10.2806 122.403 10.043C122.674 9.80534 122.883 9.46842 123.033 9.03223C123.186 8.59277 123.263 8.09147 123.263 7.52832ZM126.515 10.4287C126.694 10.4287 126.928 10.3864 127.218 10.3018V10.9316C127.107 10.9772 126.97 11.0163 126.808 11.0488C126.645 11.0814 126.515 11.0977 126.417 11.0977C126.01 11.0977 125.698 11.0016 125.479 10.8096C125.265 10.6143 125.157 10.3245 125.157 9.94043C125.157 9.72559 125.187 9.48145 125.245 9.20801L125.865 6.26855H125.025L125.094 5.91211L125.997 5.53125L126.607 4.41797H127.086L126.817 5.64844H128.155L128.028 6.26855H126.695L126.065 9.21777C126.007 9.50098 125.978 9.71582 125.978 9.8623C125.978 10.0446 126.025 10.1846 126.119 10.2822C126.214 10.3799 126.345 10.4287 126.515 10.4287ZM133.546 5.55078C133.845 5.55078 134.112 5.63216 134.347 5.79492C134.581 5.95443 134.763 6.18555 134.894 6.48828H134.947L135.274 5.64844H135.895L134.757 11H134.107L134.234 9.97949H134.195C133.613 10.7249 132.999 11.0977 132.354 11.0977C131.902 11.0977 131.547 10.9365 131.29 10.6143C131.033 10.292 130.904 9.85091 130.904 9.29102C130.904 8.61393 131.02 7.98568 131.251 7.40625C131.482 6.82682 131.801 6.37272 132.208 6.04395C132.615 5.71517 133.061 5.55078 133.546 5.55078ZM132.618 10.4189C132.934 10.4189 133.248 10.2692 133.561 9.96973C133.873 9.66699 134.127 9.27474 134.322 8.79297C134.518 8.30794 134.615 7.82292 134.615 7.33789C134.615 7.0026 134.524 6.73568 134.342 6.53711C134.16 6.33854 133.92 6.23926 133.624 6.23926C133.285 6.23926 132.97 6.37923 132.677 6.65918C132.387 6.93913 132.159 7.31836 131.993 7.79688C131.827 8.27539 131.744 8.77995 131.744 9.31055C131.744 9.68164 131.821 9.95996 131.974 10.1455C132.127 10.3278 132.341 10.4189 132.618 10.4189ZM137.169 11L136.559 5.64844H137.379L137.691 8.6416C137.77 9.48145 137.809 10.0706 137.809 10.4092H137.838C138.251 9.514 138.543 8.91016 138.712 8.59766L140.299 5.64844H141.168L138.282 11H137.169ZM143.819 5.55078C144.119 5.55078 144.386 5.63216 144.62 5.79492C144.854 5.95443 145.037 6.18555 145.167 6.48828H145.221L145.548 5.64844H146.168L145.03 11H144.381L144.508 9.97949H144.469C143.886 10.7249 143.272 11.0977 142.628 11.0977C142.175 11.0977 141.821 10.9365 141.563 10.6143C141.306 10.292 141.178 9.85091 141.178 9.29102C141.178 8.61393 141.293 7.98568 141.524 7.40625C141.756 6.82682 142.075 6.37272 142.481 6.04395C142.888 5.71517 143.334 5.55078 143.819 5.55078ZM142.892 10.4189C143.207 10.4189 143.521 10.2692 143.834 9.96973C144.146 9.66699 144.4 9.27474 144.596 8.79297C144.791 8.30794 144.889 7.82292 144.889 7.33789C144.889 7.0026 144.798 6.73568 144.615 6.53711C144.433 6.33854 144.194 6.23926 143.897 6.23926C143.559 6.23926 143.243 6.37923 142.95 6.65918C142.66 6.93913 142.433 7.31836 142.267 7.79688C142.101 8.27539 142.018 8.77995 142.018 9.31055C142.018 9.68164 142.094 9.95996 142.247 10.1455C142.4 10.3278 142.615 10.4189 142.892 10.4189ZM147.462 11H146.642L147.784 5.64844H148.604L147.462 11ZM148.014 4.28125C148.014 4.09896 148.066 3.95085 148.17 3.83691C148.274 3.71973 148.409 3.66113 148.575 3.66113C148.862 3.66113 149.005 3.80762 149.005 4.10059C149.005 4.27962 148.95 4.43099 148.839 4.55469C148.731 4.67839 148.606 4.74023 148.463 4.74023C148.333 4.74023 148.225 4.70117 148.141 4.62305C148.056 4.54167 148.014 4.42773 148.014 4.28125ZM149.991 11H149.171L150.792 3.40234H151.612L149.991 11ZM154.552 5.55078C154.851 5.55078 155.118 5.63216 155.353 5.79492C155.587 5.95443 155.769 6.18555 155.899 6.48828H155.953L156.28 5.64844H156.9L155.763 11H155.113L155.24 9.97949H155.201C154.618 10.7249 154.005 11.0977 153.36 11.0977C152.908 11.0977 152.553 10.9365 152.296 10.6143C152.039 10.292 151.91 9.85091 151.91 9.29102C151.91 8.61393 152.026 7.98568 152.257 7.40625C152.488 6.82682 152.807 6.37272 153.214 6.04395C153.621 5.71517 154.067 5.55078 154.552 5.55078ZM153.624 10.4189C153.94 10.4189 154.254 10.2692 154.566 9.96973C154.879 9.66699 155.133 9.27474 155.328 8.79297C155.523 8.30794 155.621 7.82292 155.621 7.33789C155.621 7.0026 155.53 6.73568 155.348 6.53711C155.165 6.33854 154.926 6.23926 154.63 6.23926C154.291 6.23926 153.976 6.37923 153.683 6.65918C153.393 6.93913 153.165 7.31836 152.999 7.79688C152.833 8.27539 152.75 8.77995 152.75 9.31055C152.75 9.68164 152.826 9.95996 152.979 10.1455C153.132 10.3278 153.347 10.4189 153.624 10.4189ZM159.747 11.0977C159.431 11.0977 159.153 11.0146 158.912 10.8486C158.674 10.6826 158.495 10.4564 158.375 10.1699H158.326L157.984 11H157.374L158.985 3.40234H159.806C159.64 4.1901 159.511 4.79395 159.42 5.21387C159.332 5.63053 159.21 6.11882 159.054 6.67871H159.098C159.4 6.2946 159.698 6.01302 159.991 5.83398C160.287 5.65169 160.592 5.56055 160.904 5.56055C161.363 5.56055 161.721 5.72168 161.979 6.04395C162.236 6.36621 162.364 6.80892 162.364 7.37207C162.364 8.05241 162.252 8.68229 162.027 9.26172C161.806 9.83789 161.495 10.2887 161.095 10.6143C160.698 10.9365 160.248 11.0977 159.747 11.0977ZM160.655 6.23926C160.343 6.23926 160.024 6.39388 159.698 6.70312C159.376 7.01237 159.119 7.40137 158.927 7.87012C158.738 8.33887 158.644 8.81901 158.644 9.31055C158.644 9.66862 158.733 9.94368 158.912 10.1357C159.094 10.3245 159.356 10.4189 159.698 10.4189C160.021 10.4189 160.32 10.2871 160.597 10.0234C160.877 9.75977 161.101 9.38542 161.271 8.90039C161.44 8.41211 161.524 7.89453 161.524 7.34766C161.524 6.60872 161.235 6.23926 160.655 6.23926ZM163.956 11H163.136L164.757 3.40234H165.577L163.956 11ZM167.799 11.0977C167.2 11.0977 166.729 10.9202 166.388 10.5654C166.046 10.2106 165.875 9.71908 165.875 9.09082C165.875 8.47884 165.995 7.8929 166.236 7.33301C166.48 6.76986 166.803 6.33203 167.203 6.01953C167.604 5.70703 168.045 5.55078 168.526 5.55078C169.024 5.55078 169.399 5.65983 169.649 5.87793C169.9 6.09277 170.025 6.39388 170.025 6.78125C170.025 7.36719 169.755 7.8278 169.215 8.16309C168.674 8.49512 167.901 8.66113 166.896 8.66113H166.734L166.715 9.05176C166.715 9.47819 166.814 9.81185 167.013 10.0527C167.215 10.2904 167.525 10.4092 167.945 10.4092C168.15 10.4092 168.36 10.3799 168.575 10.3213C168.793 10.2627 169.063 10.1553 169.386 9.99902V10.7119C169.08 10.8551 168.81 10.9544 168.575 11.0098C168.341 11.0684 168.082 11.0977 167.799 11.0977ZM168.478 6.24902C168.142 6.24902 167.826 6.40202 167.53 6.70801C167.237 7.014 167.013 7.4388 166.856 7.98242H166.915C167.657 7.98242 168.225 7.88639 168.619 7.69434C169.016 7.49902 169.215 7.21745 169.215 6.84961C169.215 6.67708 169.155 6.53385 169.034 6.41992C168.917 6.30599 168.731 6.24902 168.478 6.24902Z" fill="#989898" fill-opacity="0.8"/>
</svg>
